<?xml version="1.0" encoding="UTF-8"?>
<svg id="Layer_1" data-name="Layer 1" xmlns="http://www.w3.org/2000/svg" viewBox="0 0 189.12 266.74">
  <defs>
    <style>
      .cls-1, .cls-2, .cls-3 {
        fill: #fff;
      }

      .cls-1, .cls-3 {
        stroke: #fff;
        stroke-miterlimit: 10;
      }

      .cls-3 {
        fill-rule: evenodd;
      }
    </style>
  </defs>
  <path class="cls-2" d="M162.69,146.58l.59.2.43.45,25.42,26.63-25.69,14.92h.97v44.77l-75.56,33.2-66.31-32.59-1.39-.69v-46.23L0,173.89l21.7-26.52.48-.58,72.62-22.35.77-.23,67.13,22.38ZM91.39,260.17l68.02-29.89v-39.18l-43.36,25.18-24.65-27.61v71.5ZM67.43,216.48l-41.31-26.09v39.97l60.27,29.63v-70.07l-18.97,26.56ZM93.01,183l24.04,26.92,64.08-37.21-19.82-20.76-68.31,31.05ZM7.43,172.68l58.68,37.06,19.07-26.7-60.89-30.96-16.85,20.6ZM30.25,149.52l58.7,29.85,66.13-30.06-59.58-19.86-65.25,20.07Z"/>
  <path class="cls-3" d="M159.89,74.41l-24.5-23.21-7.74,7.74,12.9,12.9-7.74,7.74-14.19-12.9-7.74,7.74,14.19,12.9-23.22,23.21c-.1,0-.47-.1-1.05-.26-12.28-6.86-27.24-5.02-36.45,4.07-11.41,11.26-8.28,28.07-7.42,30.92,4.73,19.39,27.98,25.9,42.35,20.73,9.18-3.3,18.13-13.13,18.94-25.48.36-5.51-1.26-11.68-6.04-18.37l47.72-47.72ZM87.69,150.95c-8.55,0-15.48-6.35-15.48-14.19s6.93-14.19,15.48-14.19,15.48,6.35,15.48,14.19-6.93,14.19-15.48,14.19Z"/>
  <path class="cls-1" d="M12.33.5h157.02v15.7s-.67,35.5-35.83,17.06v-15.79s-3.36-9.6-7.65,0v16.31s-17.75,14.33-32.68-.6v-15.9s-3.29-9.06-6.17,0v16.17s-12.95,13.42-32.34,0v-17.45s-2.55-5.91-6.04,0v17.18s-30.43,21.74-36.17-15l-.13-17.68Z"/>
</svg>